<svg id="Layer_1" data-name="Layer 1" xmlns="http://www.w3.org/2000/svg" viewBox="0 0 500 500"><defs><style>.cls-1{fill:#fff;}</style></defs><polygon class="cls-1" points="376.37 244.38 380.14 240.62 366.63 240.62 366.63 229.27 382.73 229.27 382.73 225.56 362.2 225.56 362.2 261.25 383.27 261.25 383.27 257.48 366.63 257.48 366.63 244.38 376.37 244.38"/><path class="cls-1" d="M294.66,225.56,290.9,245l-1,5.77c-.19,1.13-.38,2.3-.57,3.48l-.52,3.31-.66-3.29c-.24-1.21-.49-2.38-.75-3.52l0-.16c-.42-1.9-.84-3.76-1.27-5.61l-4.68-19.43h-4.51L272.07,245c-.44,1.92-.86,3.84-1.28,5.78-.24,1.1-.47,2.23-.7,3.38l-.66,3.35-.52-3.38c-.18-1.14-.35-2.26-.54-3.36-.33-1.93-.67-3.86-1-5.79l-3.65-19.43h-4.75l7.41,35.69h5.75l5.23-21.47c.29-1.34.57-2.69.84-4.06.12-.56.23-1.15.34-1.75l.58-3.25.6,3.25c.11.59.21,1.18.33,1.75.27,1.38.56,2.72.85,4.08L286,261.25h5.76l7.45-35.69Z"/><rect class="cls-1" x="310.61" y="225.56" width="4.43" height="35.7"/><path class="cls-1" d="M338.81,261.91a14.59,14.59,0,0,0,6.5-1.36,10.09,10.09,0,0,0,4.18-3.66,9.53,9.53,0,0,0,1.44-5.13,9.41,9.41,0,0,0-.95-4.4,8.81,8.81,0,0,0-2.61-3,20.65,20.65,0,0,0-3.78-2.12l-5.06-2.18c-1-.45-1.94-.92-2.83-1.38a6.83,6.83,0,0,1-2.28-1.8,4.34,4.34,0,0,1-.88-2.82,4.64,4.64,0,0,1,1.85-3.86,7.74,7.74,0,0,1,4.86-1.43,10.88,10.88,0,0,1,4.44.9,15,15,0,0,1,3.68,2.35l2.39-2.87a14.08,14.08,0,0,0-4.53-3.06,14.69,14.69,0,0,0-6-1.2,13.18,13.18,0,0,0-5.79,1.22,9.78,9.78,0,0,0-4,3.37,8.55,8.55,0,0,0-1.44,4.86,8.22,8.22,0,0,0,1.09,4.36,9.76,9.76,0,0,0,2.74,2.91,20.64,20.64,0,0,0,3.41,1.9l5.12,2.23c1.23.57,2.19,1.05,3,1.54a6.89,6.89,0,0,1,2.14,1.86,5,5,0,0,1,.8,3,5.28,5.28,0,0,1-2,4.27,8.54,8.54,0,0,1-5.54,1.62,14.11,14.11,0,0,1-10-4.29l-2.5,2.87a18.18,18.18,0,0,0,5.51,3.85A16.51,16.51,0,0,0,338.81,261.91Z"/><path class="cls-1" d="M413.37,261.25h5l-9.06-15.6.73-.22c.48-.14.92-.3,1.32-.46a9.82,9.82,0,0,0,4.41-3.51,10.26,10.26,0,0,0,1.6-5.92,9.86,9.86,0,0,0-1.6-5.89,8.91,8.91,0,0,0-4.42-3.15,20.59,20.59,0,0,0-6.48-.95H393.75v35.7h4.42V246.13h6.59Zm-15.2-18.72V229.1h6.05a12.09,12.09,0,0,1,6.47,1.46c1.53,1,2.26,2.61,2.26,5a6.11,6.11,0,0,1-2.26,5.25,10.43,10.43,0,0,1-6.47,1.74Z"/><polygon class="cls-1" points="241.53 244.38 245.3 240.62 231.78 240.62 231.78 229.27 247.89 229.27 247.89 225.56 227.35 225.56 227.35 261.25 248.43 261.25 248.43 257.48 231.78 257.48 231.78 244.38 241.53 244.38"/><polygon class="cls-1" points="190.12 265.55 190.12 221.35 139.4 256.89 139.4 303.77 190.12 265.55"/><polygon class="cls-1" points="151.04 208.69 107.47 239.23 128.01 249.11 151.04 232.97 151.04 208.69"/><polygon class="cls-1" points="111.75 196.23 73.62 222.94 95.65 233.54 111.75 222.27 111.75 196.23"/></svg>